<?xml version="1.0" encoding="UTF-8" standalone="no"?>
<!-- Generator: Adobe Illustrator 19.0.0, SVG Export Plug-In . SVG Version: 6.00 Build 0)  -->

<svg
   xmlns:dc="http://purl.org/dc/elements/1.1/"
   xmlns:cc="http://creativecommons.org/ns#"
   xmlns:rdf="http://www.w3.org/1999/02/22-rdf-syntax-ns#"
   xmlns:svg="http://www.w3.org/2000/svg"
   xmlns="http://www.w3.org/2000/svg"
   xmlns:sodipodi="http://sodipodi.sourceforge.net/DTD/sodipodi-0.dtd"
   xmlns:inkscape="http://www.inkscape.org/namespaces/inkscape"
   version="1.1"
   id="Layer_1"
   x="0px"
   y="0px"
   viewBox="-234 320.9 100.4908 100.4908"
   xml:space="preserve"
   inkscape:version="0.91 r13725"
   sodipodi:docname="cisto-integrac-vektor-2017.svg"
   width="100.4908"
   height="100.4908"><metadata
     id="metadata28"><rdf:RDF><cc:Work
         rdf:about=""><dc:format>image/svg+xml</dc:format><dc:type
           rdf:resource="http://purl.org/dc/dcmitype/StillImage" /><dc:title></dc:title></cc:Work></rdf:RDF></metadata><defs
     id="defs26" /><sodipodi:namedview
     pagecolor="#ffffff"
     bordercolor="#666666"
     borderopacity="1"
     objecttolerance="10000"
     gridtolerance="10000"
     guidetolerance="10000"
     inkscape:pageopacity="0"
     inkscape:pageshadow="2"
     inkscape:window-width="1280"
     inkscape:window-height="666"
     id="namedview24"
     showgrid="false"
     inkscape:zoom="4.6965174"
     inkscape:cx="45.053411"
     inkscape:cy="52.220461"
     inkscape:window-x="-8"
     inkscape:window-y="-8"
     inkscape:window-maximized="1"
     inkscape:current-layer="Layer_1"
     fit-margin-top="0"
     fit-margin-left="0"
     fit-margin-right="0"
     fit-margin-bottom="0" /><style
     type="text/css"
     id="style3">
	.st0{fill:#006DB6;}
	.st1{font-family:'Oswald-Regular';}
	.st2{font-size:26.7975px;}
	.st3{fill:#00A9DE;}
	.st4{font-size:17.741px;}
</style><g
     id="logo__item--logo_0"
     inkscape:export-xdpi="478.25275"
     inkscape:export-ydpi="478.25275"
     transform="translate(-14.172212,-7.3277073)"><g
       transform="matrix(0.14157622,0,0,0.14157622,852.48466,345.5)"
       id="g16"><g
         id="g18"><path
           class="st0"
           d="m -6934.5,-73.4 -569.4,0 c -12,0 -21.6,9.7 -21.6,21.6 l 0,569.4 c 0,12 9.7,21.6 21.6,21.6 l 569.4,0 c 12,0 21.6,-9.7 21.6,-21.6 l 0,-569.4 c 0,-11.9 -9.7,-21.6 -21.6,-21.6 z m -30.7,542.4 c 0,9.9 -8,17.9 -17.9,17.9 l -472.1,0 c -9.9,0 -17.9,-8 -17.9,-17.9 l 0,-472.1 c 0,-9.9 8,-17.9 17.9,-17.9 l 472.2,0 c 9.9,0 17.9,8 17.9,17.9 l -0.1,472.1 0,0 z m -608.9,-111.8 38.9,0 0,-17.9 -38.9,0 0,17.9 z m 0,38.4 38.9,0 0,-17.9 -38.9,0 0,17.9 z m 0,38.4 38.9,0 0,-17.9 -38.9,0 0,17.9 z m 0,76.9 38.9,0 0,-17.9 -38.9,0 0,17.9 z m 0,-192.1 38.9,0 0,-17.9 -38.9,0 0,17.9 z m 0,153.7 38.9,0 0,-17.9 -38.9,0 0,17.9 z m 0,-422.7 38.9,0 0,-17.9 -38.9,0 0,17.9 z m 0,76.9 38.9,0 0,-17.9 -38.9,0 0,17.9 z m 0,-38.5 38.9,0 0,-17.9 -38.9,0 0,17.9 z m 0,-76.8 38.9,0 0,-18 -38.9,0 0,18 z m 0,153.6 38.9,0 0,-17.9 -38.9,0 0,17.9 z m 0,76.9 38.9,0 0,-17.9 -38.9,0 0,17.9 z m 0,-38.4 38.9,0 0,-17.9 -38.9,0 0,17.9 z m 0,76.8 38.9,0 0,-17.9 -38.9,0 0,17.9 z m 248.5,-402.3 -17.9,0 0,38.9 17.9,0 0,-38.9 z m 269,0 -17.9,0 0,38.9 17.9,0 0,-38.9 z m -38.3,0 -17.9,0 0,38.9 17.9,0 0,-38.9 z m -384.3,0 -17.9,0 0,38.9 17.9,0 0,-38.9 z m 307.4,0 -17.9,0 0,38.9 17.9,0 0,-38.9 z m 230.5,0 -17.9,0 0,38.9 17.9,0 0,-38.9 z m -76.8,0 -17.9,0 0,38.9 17.9,0 0,-38.9 z m 38.4,0 -17.9,0 0,38.9 17.9,0 0,-38.9 z m -153.7,0 -17.9,0 0,38.9 17.9,0 0,-38.9 z m -269,0 -17.9,0 0,38.9 17.9,0 0,-38.9 z m 38.5,0 -17.9,0 0,38.9 17.9,0 0,-38.9 z m -76.9,0 -17.9,0 0,38.9 17.9,0 0,-38.9 z m 192.1,0 -17.9,0 0,38.9 17.9,0 0,-38.9 z m 38.4,0 -17.9,0 0,38.9 17.9,0 0,-38.9 z m -76.8,0 -17.9,0 0,38.9 17.9,0 0,-38.9 z m -287,94.9 38.9,0 0,-17.9 -38.9,0 0,17.9 z m 115.4,614.9 17.9,0 0,-38.8 -17.9,0 0,38.8 z m 555.5,-307.5 38.9,0 0,-17.9 -38.9,0 0,17.9 z m 0,-38.4 38.9,0 0,-17.9 -38.9,0 0,17.9 z m 0,76.9 38.9,0 0,-17.9 -38.9,0 0,17.9 z m 0,76.8 38.9,0 0,-17.9 -38.9,0 0,17.9 z m 0,38.4 38.9,0 0,-17.9 -38.9,0 0,17.9 z m 0,-76.8 38.9,0 0,-17.9 -38.9,0 0,17.9 z m 0,-153.7 38.9,0 0,-17.9 -38.9,0 0,17.9 z m 0,-192.1 38.9,0 0,-18 -38.9,0 0,18 z m 0,461.1 38.9,0 0,-17.9 -38.9,0 0,17.9 z m 0,-517.5 0,17.9 38.9,0 0,-17.9 -38.9,0 z m 0,94.8 38.9,0 0,-17.9 -38.9,0 0,17.9 z m 0,38.4 38.9,0 0,-17.9 -38.9,0 0,17.9 z m 0,76.8 38.9,0 0,-17.9 -38.9,0 0,17.9 z m 0,-38.3 38.9,0 0,-17.9 -38.9,0 0,17.9 z m -478.6,461.1 17.9,0 0,-38.8 -17.9,0 0,38.8 z m 115.2,0 17.9,0 0,-38.8 -17.9,0 0,38.8 z m 76.9,0 17.9,0 0,-38.8 -17.9,0 0,38.8 z m -38.5,0 17.9,0 0,-38.8 -17.9,0 c 0,0 0,38.8 0,38.8 z m -76.8,0 17.9,0 0,-38.8 -17.9,0 0,38.8 z m -115.3,0 17.9,0 0,-38.8 -17.9,0 0,38.8 z m 76.8,0 17.9,0 0,-38.8 -17.9,0 0,38.8 z m -153.7,0 17.9,0 0,-38.8 -17.9,0 0,38.8 z m 422.7,0 17.9,0 0,-38.8 -17.9,0 0,38.8 z m 76.9,0 17.9,0 0,-38.8 -17.9,0 0,38.8 z m -38.5,0 17.9,0 0,-38.8 -17.9,0 0,38.8 z m 76.9,0 17.9,0 0,-38.8 -17.9,0 0,38.8 z m -192.1,0 17.9,0 0,-38.8 -17.9,0 0,38.8 z m 248.1,-76.9 38.9,0 0,-17.9 -38.9,0 0,17.9 z m -209.7,76.9 17.9,0 0,-38.8 -17.9,0 0,38.8 z"
           id="path20"
           inkscape:connector-curvature="0"
           style="fill:#006db6" /><path
           class="st3"
           d="m -7371.9,392.1 c 0,5.4 4.4,9.9 9.9,9.9 5.5,0 9.9,-4.4 9.9,-9.9 0,-5.4 -4.4,-9.9 -9.9,-9.9 -5.4,0 -9.9,4.4 -9.9,9.9 z m 137.5,-191.6 c 0,-5.4 -4.4,-9.9 -9.9,-9.9 -5.4,0 -9.9,4.4 -9.9,9.9 0,5.4 4.4,9.9 9.9,9.9 5.5,-0.1 9.9,-4.5 9.9,-9.9 z m 205.7,-167 -65.2,0 c 0,19 0,47.5 0,53.6 6.4,0 24.2,0 33.8,0 2.2,-9.6 10.7,-16.8 20.9,-16.8 8.6,0 16,5.1 19.4,12.5 l 0,-40.4 c 0.1,-4.9 -4,-8.9 -8.9,-8.9 z m -166.1,340.6 c 0,5.4 4.4,9.9 9.9,9.9 5.4,0 9.9,-4.4 9.9,-9.9 0,-5.5 -4.4,-9.9 -9.9,-9.9 -5.4,0.1 -9.9,4.5 -9.9,9.9 z m 165.6,-282.3 c 0,-5.4 -4.4,-9.9 -9.9,-9.9 -5.5,0 -9.9,4.4 -9.9,9.9 0,5.5 4.4,9.9 9.9,9.9 5.4,-0.1 9.9,-4.5 9.9,-9.9 z m -141.1,40.1 c 5.4,0 9.9,-4.4 9.9,-9.9 0,-5.5 -4.4,-9.9 -9.9,-9.9 -5.5,0 -9.9,4.4 -9.9,9.9 0,5.5 4.4,9.9 9.9,9.9 z m 131.1,-18.7 c -9.5,0 -17.3,-6.1 -20.3,-14.6 l -46.1,0 0,-65.1 -204.7,0 c 0,31.3 0,113.5 0,122 10.6,0 132.2,0 132.2,0 l 0,198.5 c 8.5,2.8 14.6,10.8 14.6,20.3 0,11.8 -9.6,21.4 -21.4,21.4 -11.9,0 -21.5,-9.6 -21.5,-21.4 0,-10.2 7.2,-18.8 16.8,-20.9 0,-36.3 0,-176.8 0,-186.2 -10.6,0 -132.2,0 -132.2,0 l 0,-133.7 -44.5,0 c 0,26.7 0,89.3 0,97.3 5.9,0 20.2,0 20.2,0 0,0 0,56.5 0,66.2 9.1,0 68.8,0 80.7,0 1.7,-10.1 10.5,-17.9 21.1,-17.9 11.8,0 21.4,9.6 21.4,21.4 0,11.8 -9.6,21.5 -21.4,21.5 -9,0 -16.7,-5.6 -19.9,-13.5 l -93.5,0 c 0,0 0,-56.5 0,-66.2 -5.9,0 -20.2,0 -20.2,0 l 0,-108.8 -32,0 c -4.9,0 -9,4 -9,9 l 0,145.5 41.1,0 5.8,0 0,29.3 -11.6,0 c 0,0 0,-11.1 0,-17.8 -6.5,0 -27.1,0 -35.3,0 l 0,112.8 56.8,0 5.8,0 0,59.2 c 9,2.5 15.7,10.7 15.7,20.6 0,11.8 -9.6,21.4 -21.4,21.4 -11.8,0 -21.5,-9.6 -21.5,-21.4 0,-9.8 6.7,-18 15.7,-20.6 0,-11.6 0,-40.2 0,-47.6 -7,0 -37,0 -51,0 l 0,99.6 c 0,4.9 4,9 9,9 l 97,0 c 0,-28.8 0,-169.4 0,-179.1 -8,0 -45.1,0 -58,0 -2.8,8.5 -10.8,14.6 -20.3,14.6 -11.8,0 -21.4,-9.6 -21.4,-21.5 0,-11.8 9.6,-21.4 21.4,-21.4 10.2,0 18.8,7.2 20.9,16.8 l 63.1,0 5.8,0 0,190.7 28.8,0 0,-52.7 11.6,0 0,52.7 32.2,0 c 0,-30.6 0,-176.1 0,-185.9 -7.3,0 -23.8,0 -31,0 0,8.4 0,56.6 0,72.3 9,2.5 15.7,10.7 15.7,20.6 0,11.8 -9.6,21.4 -21.4,21.4 -11.8,0 -21.4,-9.6 -21.4,-21.4 0,-9.8 6.7,-18 15.7,-20.6 l 0,-84 48.4,0 5.8,0 0,197.5 70.3,0 0,-122.9 c -9,-2.5 -15.7,-10.7 -15.7,-20.6 0,-11.8 9.6,-21.4 21.4,-21.4 11.8,0 21.4,9.6 21.4,21.4 0,9.8 -6.7,18 -15.7,20.6 l 0,122.9 34.4,0 c 0,-37.7 0,-192 0,-201.6 -8.4,0 -39.2,0 -39.2,0 l 0,-48 c -9,-2.5 -15.7,-10.7 -15.7,-20.6 0,-11.8 9.6,-21.5 21.4,-21.5 11.8,0 21.4,9.6 21.4,21.5 0,9.8 -6.7,18 -15.7,20.6 0,9.4 0,29.6 0,36.4 8.4,0 39.3,0 39.3,0 l 0,213.1 38.9,0 c 0,-44.1 0,-213.3 0,-222.8 -8.9,0 -47.1,0 -47.1,0 l 0,-47.4 5.8,0 32.1,0 c 2.5,-9 10.8,-15.7 20.6,-15.7 8.6,0 16,5.1 19.4,12.5 l 0,-22.2 -113.9,0 c 0,0 0,-39.3 0,-48.2 -9.4,0 -101.5,0 -123,0 -2.8,8.5 -10.8,14.6 -20.3,14.6 -11.8,0 -21.4,-9.6 -21.4,-21.4 0,-11.8 9.6,-21.4 21.4,-21.4 10.2,0 18.8,7.2 20.9,16.8 l 128.1,0 5.8,0 c 0,0 0,39.3 0,48.2 8.3,0 76.3,0 102.2,0 l 0,-24.4 c -3.4,7.1 -10.7,12.2 -19.4,12.2 z m -234.2,1.9 82.9,0 c 2.9,-8.5 10.8,-14.6 20.3,-14.6 11.8,0 21.4,9.6 21.4,21.4 0,11.8 -9.6,21.4 -21.4,21.4 -10.2,0 -18.8,-7.2 -20.9,-16.8 l -82.2,0 -0.1,-11.4 0,0 z m -127.5,131.3 c 0,5.4 4.4,9.9 9.9,9.9 5.5,0 9.9,-4.4 9.9,-9.9 0,-5.4 -4.4,-9.9 -9.9,-9.9 -5.5,0 -9.9,4.4 -9.9,9.9 z m 361.7,-57 c -9.8,0 -18,-6.7 -20.6,-15.7 -7.2,0 -20.4,0 -26.3,0 0,6.5 0,17.8 0,24.3 8.9,0 47.1,0 47.1,0 l 0,234.4 10.3,0 c 4.9,0 9,-4 9,-9 l 0,-246.5 c -3.5,7.4 -10.8,12.5 -19.5,12.5 z m -236.3,150 c 0,5.4 4.4,9.9 9.9,9.9 5.5,0 9.9,-4.4 9.9,-9.9 0,-5.5 -4.4,-9.9 -9.9,-9.9 -5.4,0 -9.9,4.4 -9.9,9.9 z M -7029.2,168 c 0,-5.4 -4.4,-9.9 -9.9,-9.9 -5.5,0 -9.9,4.4 -9.9,9.9 0,5.4 4.4,9.9 9.9,9.9 5.4,-0.1 9.9,-4.5 9.9,-9.9 z m -257.4,-86.4 c 0,5.4 4.4,9.9 9.9,9.9 5.5,0 9.9,-4.4 9.9,-9.9 0,-5.5 -4.4,-9.9 -9.9,-9.9 -5.5,0 -9.9,4.5 -9.9,9.9 z m 162.1,80.8 c 0,-5.4 -4.4,-9.9 -9.9,-9.9 -5.4,0 -9.9,4.4 -9.9,9.9 0,5.4 4.4,9.9 9.9,9.9 5.5,-0.1 9.9,-4.5 9.9,-9.9 z m -6.7,126.6 c 0,-5.4 -4.4,-9.9 -9.9,-9.9 -5.5,0 -9.9,4.4 -9.9,9.9 0,5.5 4.4,9.9 9.9,9.9 5.5,0 9.9,-4.5 9.9,-9.9 z"
           id="path22"
           inkscape:connector-curvature="0"
           style="fill:#00a9de" /></g></g></g></svg>