<?xml version="1.0" encoding="utf-8"?>
<!-- Generator: Adobe Illustrator 22.0.1, SVG Export Plug-In . SVG Version: 6.00 Build 0)  -->
<svg version="1.1"
	 id="Layer_1" inkscape:version="0.91 r13725" sodipodi:docname="cisto-integrac-vektor-2017.svg" xmlns:cc="http://creativecommons.org/ns#" xmlns:dc="http://purl.org/dc/elements/1.1/" xmlns:inkscape="http://www.inkscape.org/namespaces/inkscape" xmlns:rdf="http://www.w3.org/1999/02/22-rdf-syntax-ns#" xmlns:sodipodi="http://sodipodi.sourceforge.net/DTD/sodipodi-0.dtd" xmlns:svg="http://www.w3.org/2000/svg"
	 xmlns="http://www.w3.org/2000/svg" xmlns:xlink="http://www.w3.org/1999/xlink" x="0px" y="0px" viewBox="0 0 100.5 100.5"
	 style="enable-background:new 0 0 100.5 100.5;" xml:space="preserve">
<style type="text/css">
	.st0{fill:#545454;}
	.st1{fill:#7C7C7C;}
</style>
<sodipodi:namedview  bordercolor="#666666" borderopacity="1" fit-margin-bottom="0" fit-margin-left="0" fit-margin-right="0" fit-margin-top="0" gridtolerance="10000" guidetolerance="10000" id="namedview24" inkscape:current-layer="Layer_1" inkscape:cx="45.053411" inkscape:cy="52.220461" inkscape:pageopacity="0" inkscape:pageshadow="2" inkscape:window-height="666" inkscape:window-maximized="1" inkscape:window-width="1280" inkscape:window-x="-8" inkscape:window-y="-8" inkscape:zoom="4.6965174" objecttolerance="10000" pagecolor="#ffffff" showgrid="false">
	</sodipodi:namedview>
<g id="logo__item--logo_0" transform="translate(-14.172212,-7.3277073)" inkscape:export-xdpi="478.25275" inkscape:export-ydpi="478.25275">
	<g id="g16" transform="matrix(0.14157622,0,0,0.14157622,852.48466,345.5)">
		<g id="g18">
			<path id="path20" inkscape:connector-curvature="0" class="st0" d="M-5281.7-2340h-569.4c-12,0-21.6,9.7-21.6,21.6v569.4
				c0,12,9.7,21.6,21.6,21.6h569.4c12,0,21.6-9.7,21.6-21.6v-569.4C-5260.1-2330.3-5269.8-2340-5281.7-2340z M-5312.4-1797.6
				c0,9.9-8,17.9-17.9,17.9h-472.1c-9.9,0-17.9-8-17.9-17.9v-472.1c0-9.9,8-17.9,17.9-17.9h472.2c9.9,0,17.9,8,17.9,17.9
				L-5312.4-1797.6L-5312.4-1797.6z M-5921.3-1909.4h38.9v-17.9h-38.9V-1909.4z M-5921.3-1871h38.9v-17.9h-38.9V-1871z
				 M-5921.3-1832.6h38.9v-17.9h-38.9V-1832.6z M-5921.3-1755.7h38.9v-17.9h-38.9V-1755.7z M-5921.3-1947.8h38.9v-17.9h-38.9
				V-1947.8z M-5921.3-1794.1h38.9v-17.9h-38.9V-1794.1z M-5921.3-2216.8h38.9v-17.9h-38.9V-2216.8z M-5921.3-2139.9h38.9v-17.9
				h-38.9V-2139.9z M-5921.3-2178.4h38.9v-17.9h-38.9V-2178.4z M-5921.3-2255.2h38.9v-18h-38.9V-2255.2z M-5921.3-2101.6h38.9v-17.9
				h-38.9V-2101.6z M-5921.3-2024.7h38.9v-17.9h-38.9V-2024.7z M-5921.3-2063.1h38.9v-17.9h-38.9V-2063.1z M-5921.3-1986.3h38.9
				v-17.9h-38.9V-1986.3z M-5672.8-2388.6h-17.9v38.9h17.9V-2388.6z M-5403.8-2388.6h-17.9v38.9h17.9V-2388.6z M-5442.1-2388.6
				h-17.9v38.9h17.9V-2388.6z M-5826.4-2388.6h-17.9v38.9h17.9V-2388.6z M-5519-2388.6h-17.9v38.9h17.9V-2388.6z M-5288.5-2388.6
				h-17.9v38.9h17.9V-2388.6z M-5365.3-2388.6h-17.9v38.9h17.9V-2388.6z M-5326.9-2388.6h-17.9v38.9h17.9V-2388.6z M-5480.6-2388.6
				h-17.9v38.9h17.9V-2388.6z M-5749.6-2388.6h-17.9v38.9h17.9V-2388.6z M-5711.1-2388.6h-17.9v38.9h17.9V-2388.6z M-5788-2388.6
				h-17.9v38.9h17.9V-2388.6z M-5595.9-2388.6h-17.9v38.9h17.9V-2388.6z M-5557.5-2388.6h-17.9v38.9h17.9V-2388.6z M-5634.3-2388.6
				h-17.9v38.9h17.9V-2388.6z M-5921.3-2293.7h38.9v-17.9h-38.9C-5921.3-2311.6-5921.3-2293.7-5921.3-2293.7z M-5805.9-1678.8h17.9
				v-38.8h-17.9V-1678.8z M-5250.4-1986.3h38.9v-17.9h-38.9V-1986.3z M-5250.4-2024.7h38.9v-17.9h-38.9V-2024.7z M-5250.4-1947.8
				h38.9v-17.9h-38.9V-1947.8z M-5250.4-1871h38.9v-17.9h-38.9V-1871z M-5250.4-1832.6h38.9v-17.9h-38.9V-1832.6z M-5250.4-1909.4
				h38.9v-17.9h-38.9V-1909.4z M-5250.4-2063.1h38.9v-17.9h-38.9V-2063.1z M-5250.4-2255.2h38.9v-18h-38.9V-2255.2z M-5250.4-1794.1
				h38.9v-17.9h-38.9V-1794.1z M-5250.4-2311.6v17.9h38.9v-17.9H-5250.4z M-5250.4-2216.8h38.9v-17.9h-38.9V-2216.8z
				 M-5250.4-2178.4h38.9v-17.9h-38.9V-2178.4z M-5250.4-2101.6h38.9v-17.9h-38.9V-2101.6z M-5250.4-2139.9h38.9v-17.9h-38.9
				V-2139.9z M-5729-1678.8h17.9v-38.8h-17.9V-1678.8z M-5613.8-1678.8h17.9v-38.8h-17.9V-1678.8z M-5536.9-1678.8h17.9v-38.8h-17.9
				V-1678.8z M-5575.4-1678.8h17.9v-38.8h-17.9V-1678.8z M-5652.2-1678.8h17.9v-38.8h-17.9V-1678.8z M-5767.5-1678.8h17.9v-38.8
				h-17.9V-1678.8z M-5690.7-1678.8h17.9v-38.8h-17.9V-1678.8z M-5844.4-1678.8h17.9v-38.8h-17.9V-1678.8z M-5421.7-1678.8h17.9
				v-38.8h-17.9V-1678.8z M-5344.8-1678.8h17.9v-38.8h-17.9V-1678.8z M-5383.3-1678.8h17.9v-38.8h-17.9V-1678.8z M-5306.4-1678.8
				h17.9v-38.8h-17.9V-1678.8z M-5498.5-1678.8h17.9v-38.8h-17.9V-1678.8z M-5250.4-1755.7h38.9v-17.9h-38.9V-1755.7z
				 M-5460.1-1678.8h17.9v-38.8h-17.9V-1678.8z"/>
			<path id="path22" inkscape:connector-curvature="0" class="st1" d="M-5719.1-1874.5c0,5.4,4.4,9.9,9.9,9.9s9.9-4.4,9.9-9.9
				c0-5.4-4.4-9.9-9.9-9.9C-5714.6-1884.4-5719.1-1880-5719.1-1874.5z M-5581.6-2066.1c0-5.4-4.4-9.9-9.9-9.9
				c-5.4,0-9.9,4.4-9.9,9.9c0,5.4,4.4,9.9,9.9,9.9C-5586-2056.3-5581.6-2060.7-5581.6-2066.1z M-5375.9-2233.1h-65.2
				c0,19,0,47.5,0,53.6c6.4,0,24.2,0,33.8,0c2.2-9.6,10.7-16.8,20.9-16.8c8.6,0,16,5.1,19.4,12.5v-40.4
				C-5366.9-2229.1-5371-2233.1-5375.9-2233.1L-5375.9-2233.1z M-5542-1892.5c0,5.4,4.4,9.9,9.9,9.9c5.4,0,9.9-4.4,9.9-9.9
				s-4.4-9.9-9.9-9.9C-5537.5-1902.3-5542-1897.9-5542-1892.5z M-5376.4-2174.8c0-5.4-4.4-9.9-9.9-9.9s-9.9,4.4-9.9,9.9
				s4.4,9.9,9.9,9.9C-5380.9-2165-5376.4-2169.4-5376.4-2174.8z M-5517.5-2134.7c5.4,0,9.9-4.4,9.9-9.9s-4.4-9.9-9.9-9.9
				s-9.9,4.4-9.9,9.9S-5523-2134.7-5517.5-2134.7z M-5386.4-2153.4c-9.5,0-17.3-6.1-20.3-14.6h-46.1v-65.1h-204.7
				c0,31.3,0,113.5,0,122c10.6,0,132.2,0,132.2,0v198.5c8.5,2.8,14.6,10.8,14.6,20.3c0,11.8-9.6,21.4-21.4,21.4
				c-11.9,0-21.5-9.6-21.5-21.4c0-10.2,7.2-18.8,16.8-20.9c0-36.3,0-176.8,0-186.2c-10.6,0-132.2,0-132.2,0v-133.7h-44.5
				c0,26.7,0,89.3,0,97.3c5.9,0,20.2,0,20.2,0s0,56.5,0,66.2c9.1,0,68.8,0,80.7,0c1.7-10.1,10.5-17.9,21.1-17.9
				c11.8,0,21.4,9.6,21.4,21.4s-9.6,21.5-21.4,21.5c-9,0-16.7-5.6-19.9-13.5h-93.5c0,0,0-56.5,0-66.2c-5.9,0-20.2,0-20.2,0v-108.8
				h-32c-4.9,0-9,4-9,9v145.5h41.1h5.8v29.3h-11.6c0,0,0-11.1,0-17.8c-6.5,0-27.1,0-35.3,0v112.8h56.8h5.8v59.2
				c9,2.5,15.7,10.7,15.7,20.6c0,11.8-9.6,21.4-21.4,21.4s-21.5-9.6-21.5-21.4c0-9.8,6.7-18,15.7-20.6c0-11.6,0-40.2,0-47.6
				c-7,0-37,0-51,0v99.6c0,4.9,4,9,9,9h97c0-28.8,0-169.4,0-179.1c-8,0-45.1,0-58,0c-2.8,8.5-10.8,14.6-20.3,14.6
				c-11.8,0-21.4-9.6-21.4-21.5c0-11.8,9.6-21.4,21.4-21.4c10.2,0,18.8,7.2,20.9,16.8h63.1h5.8v190.7h28.8v-52.7h11.6v52.7h32.2
				c0-30.6,0-176.1,0-185.9c-7.3,0-23.8,0-31,0c0,8.4,0,56.6,0,72.3c9,2.5,15.7,10.7,15.7,20.6c0,11.8-9.6,21.4-21.4,21.4
				s-21.4-9.6-21.4-21.4c0-9.8,6.7-18,15.7-20.6v-84h48.4h5.8v197.5h70.3V-1957c-9-2.5-15.7-10.7-15.7-20.6
				c0-11.8,9.6-21.4,21.4-21.4s21.4,9.6,21.4,21.4c0,9.8-6.7,18-15.7,20.6v122.9h34.4c0-37.7,0-192,0-201.6c-8.4,0-39.2,0-39.2,0
				v-48c-9-2.5-15.7-10.7-15.7-20.6c0-11.8,9.6-21.5,21.4-21.5s21.4,9.6,21.4,21.5c0,9.8-6.7,18-15.7,20.6c0,9.4,0,29.6,0,36.4
				c8.4,0,39.3,0,39.3,0v213.1h38.9c0-44.1,0-213.3,0-222.8c-8.9,0-47.1,0-47.1,0v-47.4h5.8h32.1c2.5-9,10.8-15.7,20.6-15.7
				c8.6,0,16,5.1,19.4,12.5v-22.2h-113.9c0,0,0-39.3,0-48.2c-9.4,0-101.5,0-123,0c-2.8,8.5-10.8,14.6-20.3,14.6
				c-11.8,0-21.4-9.6-21.4-21.4s9.6-21.4,21.4-21.4c10.2,0,18.8,7.2,20.9,16.8h128.1h5.8c0,0,0,39.3,0,48.2c8.3,0,76.3,0,102.2,0
				v-24.4C-5370.4-2158.5-5377.7-2153.4-5386.4-2153.4L-5386.4-2153.4z M-5620.6-2151.5h82.9c2.9-8.5,10.8-14.6,20.3-14.6
				c11.8,0,21.4,9.6,21.4,21.4s-9.6,21.4-21.4,21.4c-10.2,0-18.8-7.2-20.9-16.8h-82.2L-5620.6-2151.5L-5620.6-2151.5L-5620.6-2151.5
				z M-5748.1-2020.2c0,5.4,4.4,9.9,9.9,9.9s9.9-4.4,9.9-9.9c0-5.4-4.4-9.9-9.9-9.9S-5748.1-2025.7-5748.1-2020.2z M-5386.4-2077.2
				c-9.8,0-18-6.7-20.6-15.7c-7.2,0-20.4,0-26.3,0c0,6.5,0,17.8,0,24.3c8.9,0,47.1,0,47.1,0v234.4h10.3c4.9,0,9-4,9-9v-246.5
				C-5370.4-2082.3-5377.7-2077.2-5386.4-2077.2z M-5622.7-1927.2c0,5.4,4.4,9.9,9.9,9.9s9.9-4.4,9.9-9.9s-4.4-9.9-9.9-9.9
				C-5618.2-1937.1-5622.7-1932.7-5622.7-1927.2z M-5376.4-2098.6c0-5.4-4.4-9.9-9.9-9.9s-9.9,4.4-9.9,9.9c0,5.4,4.4,9.9,9.9,9.9
				C-5380.9-2088.8-5376.4-2093.2-5376.4-2098.6z M-5633.8-2185c0,5.4,4.4,9.9,9.9,9.9s9.9-4.4,9.9-9.9s-4.4-9.9-9.9-9.9
				S-5633.8-2190.4-5633.8-2185z M-5471.7-2104.2c0-5.4-4.4-9.9-9.9-9.9c-5.4,0-9.9,4.4-9.9,9.9c0,5.4,4.4,9.9,9.9,9.9
				C-5476.1-2094.4-5471.7-2098.8-5471.7-2104.2z M-5478.4-1977.6c0-5.4-4.4-9.9-9.9-9.9s-9.9,4.4-9.9,9.9s4.4,9.9,9.9,9.9
				S-5478.4-1972.2-5478.4-1977.6z"/>
		</g>
	</g>
</g>
</svg>
